<svg width="154" height="27" viewBox="0 0 154 27" fill="none" xmlns="http://www.w3.org/2000/svg">
<path d="M149.052 22.4654C148.054 22.4654 147.226 22.3334 146.566 22.0694C145.92 21.8054 145.407 21.4754 145.026 21.0794C144.644 20.6834 144.358 20.2874 144.168 19.8914C143.977 19.4954 143.852 19.1654 143.794 18.9014C143.735 18.6374 143.706 18.5054 143.706 18.5054H147.138C147.138 18.5054 147.16 18.5714 147.204 18.7034C147.262 18.8208 147.358 18.9674 147.49 19.1434C147.636 19.3048 147.849 19.4514 148.128 19.5834C148.406 19.7008 148.78 19.7594 149.25 19.7594C149.822 19.7594 150.196 19.6494 150.372 19.4294C150.548 19.2094 150.636 19.0114 150.636 18.8354C150.636 18.3954 150.262 18.1021 149.514 17.9554L147.908 17.6694C147.204 17.5521 146.544 17.3614 145.928 17.0974C145.312 16.8334 144.813 16.4668 144.432 15.9974C144.05 15.5281 143.86 14.9194 143.86 14.1714C143.86 13.4528 144.043 12.8074 144.41 12.2354C144.791 11.6634 145.334 11.2088 146.038 10.8714C146.756 10.5341 147.622 10.3654 148.634 10.3654C149.558 10.3654 150.328 10.4901 150.944 10.7394C151.56 10.9887 152.051 11.2968 152.418 11.6634C152.784 12.0301 153.056 12.3968 153.232 12.7634C153.408 13.1301 153.525 13.4381 153.584 13.6874C153.642 13.9368 153.672 14.0614 153.672 14.0614H150.35C150.35 14.0614 150.306 13.9734 150.218 13.7974C150.13 13.6214 149.954 13.4454 149.69 13.2694C149.44 13.0934 149.059 13.0054 148.546 13.0054C148.032 13.0054 147.68 13.1081 147.49 13.3134C147.299 13.5041 147.204 13.7021 147.204 13.9074C147.204 14.1714 147.328 14.3694 147.578 14.5014C147.827 14.6188 148.142 14.7141 148.524 14.7874L149.998 15.0734C151.156 15.2934 152.102 15.6821 152.836 16.2394C153.584 16.7821 153.958 17.5814 153.958 18.6374C153.958 19.7228 153.532 20.6321 152.682 21.3654C151.846 22.0988 150.636 22.4654 149.052 22.4654Z" fill="white"/>
<path d="M137.33 22.4654C136.582 22.4654 135.966 22.3408 135.482 22.0914C134.998 21.8421 134.638 21.5928 134.404 21.3434C134.169 21.0794 134.037 20.9181 134.008 20.8594H133.832V22.2454H130.07V5.52542H133.832V11.9714H134.008C134.037 11.9128 134.169 11.7514 134.404 11.4874C134.638 11.2234 134.998 10.9741 135.482 10.7394C135.966 10.4901 136.582 10.3654 137.33 10.3654C138.195 10.3654 138.943 10.5414 139.574 10.8934C140.204 11.2308 140.725 11.6928 141.136 12.2794C141.561 12.8514 141.876 13.4968 142.082 14.2154C142.302 14.9341 142.412 15.6674 142.412 16.4154C142.412 17.1634 142.302 17.8968 142.082 18.6154C141.876 19.3341 141.561 19.9868 141.136 20.5734C140.725 21.1454 140.204 21.6074 139.574 21.9594C138.943 22.2968 138.195 22.4654 137.33 22.4654ZM136.164 19.4514C136.706 19.4514 137.161 19.3048 137.528 19.0114C137.894 18.7034 138.166 18.3221 138.342 17.8674C138.518 17.3981 138.606 16.9141 138.606 16.4154C138.606 15.9168 138.518 15.4401 138.342 14.9854C138.166 14.5161 137.894 14.1348 137.528 13.8414C137.161 13.5334 136.706 13.3794 136.164 13.3794C135.621 13.3794 135.166 13.5334 134.8 13.8414C134.433 14.1348 134.162 14.5161 133.986 14.9854C133.81 15.4401 133.722 15.9168 133.722 16.4154C133.722 16.9141 133.81 17.3981 133.986 17.8674C134.162 18.3221 134.433 18.7034 134.8 19.0114C135.166 19.3048 135.621 19.4514 136.164 19.4514Z" fill="white"/>
<path d="M122.528 22.4654C121.208 22.4654 120.086 22.1868 119.162 21.6294C118.238 21.0721 117.526 20.3314 117.028 19.4074C116.544 18.4834 116.302 17.4861 116.302 16.4154C116.302 15.3448 116.544 14.3474 117.028 13.4234C117.526 12.4994 118.238 11.7588 119.162 11.2014C120.086 10.6441 121.208 10.3654 122.528 10.3654C123.862 10.3654 124.992 10.6441 125.916 11.2014C126.84 11.7588 127.544 12.4994 128.028 13.4234C128.526 14.3474 128.776 15.3448 128.776 16.4154C128.776 17.4861 128.526 18.4834 128.028 19.4074C127.544 20.3314 126.84 21.0721 125.916 21.6294C124.992 22.1868 123.862 22.4654 122.528 22.4654ZM122.528 19.4294C123.305 19.4294 123.906 19.1361 124.332 18.5494C124.772 17.9481 124.992 17.2368 124.992 16.4154C124.992 15.5941 124.772 14.8901 124.332 14.3034C123.906 13.7021 123.305 13.4014 122.528 13.4014C121.765 13.4014 121.164 13.7021 120.724 14.3034C120.284 14.8901 120.064 15.5941 120.064 16.4154C120.064 17.2368 120.284 17.9481 120.724 18.5494C121.164 19.1361 121.765 19.4294 122.528 19.4294Z" fill="white"/>
<path d="M108.633 22.4654C107.944 22.4654 107.357 22.4288 106.873 22.3554C106.389 22.2968 106.147 22.2674 106.147 22.2674V19.1214C106.147 19.1214 106.323 19.1434 106.675 19.1874C107.042 19.2168 107.445 19.2314 107.885 19.2314C108.853 19.2314 109.623 18.9968 110.195 18.5274C110.782 18.0581 111.075 17.2294 111.075 16.0414V5.96542H114.837V16.1294C114.837 17.2734 114.632 18.3294 114.221 19.2974C113.825 20.2508 113.172 21.0208 112.263 21.6074C111.354 22.1794 110.144 22.4654 108.633 22.4654Z" fill="white"/>
<path d="M90.0918 22.2454V10.5854H93.8537V12.2354H93.9637C94.1104 12.0008 94.3084 11.7368 94.5577 11.4434C94.8217 11.1501 95.1664 10.9007 95.5918 10.6954C96.0318 10.4754 96.5744 10.3654 97.2197 10.3654C98.1584 10.3654 98.9064 10.5781 99.4637 11.0034C100.036 11.4288 100.446 11.9714 100.696 12.6314C100.945 13.2768 101.07 13.9441 101.07 14.6334V22.2454H97.3077V15.3374C97.3077 14.8388 97.1758 14.3988 96.9118 14.0174C96.6478 13.6214 96.2151 13.4234 95.6137 13.4234C94.9537 13.4234 94.4917 13.6434 94.2277 14.0834C93.9784 14.5088 93.8537 14.9781 93.8537 15.4914V22.2454H90.0918Z" fill="white"/>
<path d="M81.5549 26.9314C80.4549 26.9314 79.5456 26.7921 78.8269 26.5134C78.1082 26.2494 77.5362 25.9121 77.1109 25.5014C76.7002 25.1054 76.3996 24.7021 76.2089 24.2914C76.0182 23.8954 75.8936 23.5581 75.8349 23.2794C75.7909 23.0154 75.7689 22.8834 75.7689 22.8834H79.3989C79.3989 22.8834 79.4429 22.9788 79.5309 23.1694C79.6336 23.3601 79.8316 23.5508 80.1249 23.7414C80.4329 23.9468 80.8949 24.0494 81.5109 24.0494C82.3029 24.0494 82.9042 23.8221 83.3149 23.3674C83.7402 22.9128 83.9529 22.2821 83.9529 21.4754V20.2654H83.7769C83.6302 20.5001 83.4102 20.7494 83.1169 21.0134C82.8382 21.2774 82.4789 21.5048 82.0389 21.6954C81.5989 21.8714 81.0709 21.9594 80.4549 21.9594C79.6042 21.9594 78.8562 21.7981 78.2109 21.4754C77.5802 21.1528 77.0449 20.7128 76.6049 20.1554C76.1796 19.5981 75.8569 18.9748 75.6369 18.2854C75.4316 17.5961 75.3289 16.8921 75.3289 16.1734C75.3289 15.4401 75.4316 14.7288 75.6369 14.0394C75.8569 13.3501 76.1796 12.7341 76.6049 12.1914C77.0449 11.6341 77.5802 11.1941 78.2109 10.8714C78.8562 10.5341 79.6042 10.3654 80.4549 10.3654C81.0709 10.3654 81.5989 10.4608 82.0389 10.6514C82.4789 10.8274 82.8456 11.0474 83.1389 11.3114C83.4322 11.5754 83.6449 11.8248 83.7769 12.0594H83.9529V10.5854H87.7149V21.4754C87.7149 22.4141 87.4949 23.2941 87.0549 24.1154C86.6296 24.9514 85.9622 25.6261 85.0529 26.1394C84.1582 26.6674 82.9922 26.9314 81.5549 26.9314ZM81.5769 19.0334C82.1342 19.0334 82.5962 18.8941 82.9629 18.6154C83.3296 18.3367 83.6009 17.9774 83.7769 17.5374C83.9676 17.0974 84.0629 16.6428 84.0629 16.1734C84.0629 15.6748 83.9676 15.2128 83.7769 14.7874C83.6009 14.3474 83.3296 13.9881 82.9629 13.7094C82.5962 13.4308 82.1342 13.2914 81.5769 13.2914C81.0342 13.2914 80.5796 13.4308 80.2129 13.7094C79.8462 13.9881 79.5676 14.3474 79.3769 14.7874C79.1862 15.2128 79.0909 15.6748 79.0909 16.1734C79.0909 16.6428 79.1862 17.0974 79.3769 17.5374C79.5676 17.9774 79.8462 18.3367 80.2129 18.6154C80.5796 18.8941 81.0342 19.0334 81.5769 19.0334Z" fill="white"/>
<path d="M71.9143 9.19942C71.2836 9.19942 70.763 8.99409 70.3523 8.58343C69.9416 8.17276 69.7363 7.68876 69.7363 7.13142C69.7363 6.54476 69.9416 6.04609 70.3523 5.63542C70.763 5.22476 71.2836 5.01942 71.9143 5.01942C72.545 5.01942 73.0656 5.22476 73.4763 5.63542C73.887 6.04609 74.0923 6.54476 74.0923 7.13142C74.0923 7.68876 73.887 8.17276 73.4763 8.58343C73.0656 8.99409 72.545 9.19942 71.9143 9.19942ZM70.0223 22.2454V10.5854H73.7843V22.2454H70.0223Z" fill="white"/>
<path d="M63.3064 22.4654C62.3091 22.4654 61.4804 22.3334 60.8204 22.0694C60.1751 21.8054 59.6617 21.4754 59.2804 21.0794C58.8991 20.6834 58.6131 20.2874 58.4224 19.8914C58.2317 19.4954 58.1071 19.1654 58.0484 18.9014C57.9897 18.6374 57.9604 18.5054 57.9604 18.5054H61.3924C61.3924 18.5054 61.4144 18.5714 61.4584 18.7034C61.5171 18.8208 61.6124 18.9674 61.7444 19.1434C61.8911 19.3048 62.1037 19.4514 62.3824 19.5834C62.6611 19.7008 63.0351 19.7594 63.5044 19.7594C64.0764 19.7594 64.4504 19.6494 64.6264 19.4294C64.8024 19.2094 64.8904 19.0114 64.8904 18.8354C64.8904 18.3954 64.5164 18.1021 63.7684 17.9554L62.1624 17.6694C61.4584 17.5521 60.7984 17.3614 60.1824 17.0974C59.5664 16.8334 59.0677 16.4668 58.6864 15.9974C58.3051 15.5281 58.1144 14.9194 58.1144 14.1714C58.1144 13.4528 58.2977 12.8074 58.6644 12.2354C59.0457 11.6634 59.5884 11.2088 60.2924 10.8714C61.0111 10.5341 61.8764 10.3654 62.8884 10.3654C63.8124 10.3654 64.5824 10.4901 65.1984 10.7394C65.8144 10.9887 66.3057 11.2968 66.6724 11.6634C67.0391 12.0301 67.3104 12.3968 67.4864 12.7634C67.6624 13.1301 67.7797 13.4381 67.8384 13.6874C67.8971 13.9368 67.9264 14.0614 67.9264 14.0614H64.6044C64.6044 14.0614 64.5604 13.9734 64.4724 13.7974C64.3844 13.6214 64.2084 13.4454 63.9444 13.2694C63.6951 13.0934 63.3137 13.0054 62.8004 13.0054C62.2871 13.0054 61.9351 13.1081 61.7444 13.3134C61.5537 13.5041 61.4584 13.7021 61.4584 13.9074C61.4584 14.1714 61.5831 14.3694 61.8324 14.5014C62.0817 14.6188 62.3971 14.7141 62.7784 14.7874L64.2524 15.0734C65.4111 15.2934 66.3571 15.6821 67.0904 16.2394C67.8384 16.7821 68.2124 17.5814 68.2124 18.6374C68.2124 19.7228 67.7871 20.6321 66.9364 21.3654C66.1004 22.0988 64.8904 22.4654 63.3064 22.4654Z" fill="white"/>
<path d="M51.4139 22.4654C50.3725 22.4654 49.4705 22.2968 48.7079 21.9594C47.9452 21.6074 47.3072 21.1454 46.7939 20.5734C46.2952 19.9868 45.9212 19.3341 45.6719 18.6154C45.4372 17.8967 45.3199 17.1561 45.3199 16.3934C45.3199 15.6601 45.4372 14.9341 45.6719 14.2154C45.9065 13.4967 46.2659 12.8514 46.7499 12.2794C47.2339 11.6928 47.8499 11.2307 48.5979 10.8934C49.3605 10.5414 50.2625 10.3654 51.3039 10.3654C52.4185 10.3654 53.3939 10.6074 54.2299 11.0914C55.0805 11.5608 55.7405 12.2574 56.2099 13.1814C56.6939 14.0907 56.9359 15.1981 56.9359 16.5034V17.3834H49.1039C49.1479 17.9848 49.3605 18.5128 49.7419 18.9674C50.1379 19.4074 50.6952 19.6274 51.4139 19.6274C51.9565 19.6274 52.3672 19.5321 52.6459 19.3414C52.9392 19.1361 53.1372 18.9308 53.2399 18.7254C53.3425 18.5201 53.3939 18.4174 53.3939 18.4174H56.8479C56.8479 18.4174 56.8112 18.5568 56.7379 18.8354C56.6645 19.0994 56.5252 19.4368 56.3199 19.8474C56.1145 20.2434 55.8139 20.6468 55.4179 21.0574C55.0219 21.4534 54.4939 21.7908 53.8339 22.0694C53.1885 22.3334 52.3819 22.4654 51.4139 22.4654ZM49.0819 15.2054H53.3279C53.2985 14.5161 53.0859 13.9954 52.6899 13.6434C52.3085 13.2914 51.8245 13.1154 51.2379 13.1154C50.6659 13.1154 50.1745 13.2914 49.7639 13.6434C49.3679 13.9954 49.1405 14.5161 49.0819 15.2054Z" fill="white"/>
<path d="M30 22.2454V5.96542H36.446C37.7807 5.96542 38.954 6.20009 39.966 6.66942C40.978 7.12409 41.814 7.74009 42.474 8.51742C43.1487 9.29476 43.6547 10.1674 43.992 11.1354C44.3293 12.1034 44.498 13.0934 44.498 14.1054C44.498 15.1174 44.3293 16.1074 43.992 17.0754C43.6547 18.0434 43.1487 18.9161 42.474 19.6934C41.814 20.4708 40.978 21.0941 39.966 21.5634C38.954 22.0181 37.7807 22.2454 36.446 22.2454H30ZM36.27 9.30942H33.806V18.8574H36.27C37.282 18.8574 38.1107 18.6228 38.756 18.1534C39.416 17.6841 39.9 17.0901 40.208 16.3714C40.516 15.6381 40.67 14.8681 40.67 14.0614C40.67 13.2841 40.516 12.5288 40.208 11.7954C39.9 11.0621 39.416 10.4681 38.756 10.0134C38.1107 9.54409 37.282 9.30942 36.27 9.30942Z" fill="white"/>
<g clip-path="url(#clip0_8_31)">
<path fill-rule="evenodd" clip-rule="evenodd" d="M6.00629 2.90293C6.63091 2.39941 7.41036 2.12721 8.21264 2.13243H14.7857C15.5644 2.13243 16.3629 2.38379 16.9921 2.90293C17.6311 3.42864 18.0731 4.21721 18.0731 5.12736V7.83314C18.0731 8.26886 17.9 8.68672 17.5919 8.99482C17.2838 9.30291 16.8659 9.476 16.4302 9.476C15.9945 9.476 15.5766 9.30291 15.2685 8.99482C14.9604 8.68672 14.7874 8.26886 14.7874 7.83314V5.41814H8.211V7.83314C8.211 8.26886 8.03791 8.68672 7.72982 8.99482C7.42172 9.30291 7.00386 9.476 6.56814 9.476C6.13243 9.476 5.71456 9.30291 5.40647 8.99482C5.09837 8.68672 4.92529 8.26886 4.92529 7.83314V5.12736C4.92529 4.21886 5.36721 3.42864 6.00629 2.90293Z" fill="#244BF8"/>
<path fill-rule="evenodd" clip-rule="evenodd" d="M2.46429 7.66229C1.13357 7.66229 0 8.70386 0 10.0609V22.6846C0 24.0399 1.13357 25.0831 2.46429 25.0831H20.5357C21.8664 25.0831 23 24.0399 23 22.6846V10.0609C23 8.70551 21.8664 7.66229 20.5357 7.66229H2.46429Z" fill="#8FBFFA"/>
<path fill-rule="evenodd" clip-rule="evenodd" d="M12.5268 13.087C12.5268 12.8147 12.4186 12.5535 12.226 12.3609C12.0335 12.1684 11.7723 12.0602 11.5 12.0602C11.2277 12.0602 10.9665 12.1684 10.774 12.3609C10.5814 12.5535 10.4732 12.8147 10.4732 13.087V15.3459H8.21429C7.94197 15.3459 7.6808 15.4541 7.48824 15.6467C7.29568 15.8392 7.1875 16.1004 7.1875 16.3727C7.1875 16.645 7.29568 16.9062 7.48824 17.0988C7.6808 17.2913 7.94197 17.3995 8.21429 17.3995H10.4732V19.6584C10.4732 19.9307 10.5814 20.1919 10.774 20.3845C10.9665 20.577 11.2277 20.6852 11.5 20.6852C11.7723 20.6852 12.0335 20.577 12.226 20.3845C12.4186 20.1919 12.5268 19.9307 12.5268 19.6584V17.3995H14.7857C15.058 17.3995 15.3192 17.2913 15.5118 17.0988C15.7043 16.9062 15.8125 16.645 15.8125 16.3727C15.8125 16.1004 15.7043 15.8392 15.5118 15.6467C15.3192 15.4541 15.058 15.3459 14.7857 15.3459H12.5268V13.087Z" fill="#244BF8"/>
</g>
<defs>
<clipPath id="clip0_8_31">
<rect width="23" height="23" fill="white" transform="translate(0 2.13243)"/>
</clipPath>
</defs>
</svg>
